# xmcd
#
# Track frame offsets:
#	150
#	25655
#	44535
#
# Disc length: 924 seconds
#
# Revision: 0
# Processed by: cddbd v1.5.2PL0 Copyright (c) Steve Scherf et al.
# Submitted via: dBpowerAMP V4.0
#
DISCID=1c039a03
DTITLE=Jimmy Nail - Big River Cds
DYEAR=1996
DGENRE=
TTITLE0=Track01 Big River'96
TTITLE1=Track02 Bitter And Twisted (Live)
TTITLE2=Track03 What Kind Of A Man Am I (LIVE) 
EXTD=
EXTT0=
EXTT1=
EXTT2=
PLAYORDER=
